# xmcd
#
# Track frame offsets: 
#        150
#        19273
#        54597
#        74159
#        106111
#        136127
#        161681
#        187714
#        215094
#        242867
#        271257
#        299404
#        321848
#        343650
#
# Disc length: 4799 seconds
#
# Revision: 2
# Processed by: cddbd v1.5.1PL2 Copyright (c) Steve Scherf et al.
# Submitted via: ExactAudioCopy v0.95b4
#
DISCID=d812bd0e
DTITLE=Chamillionaire - The Sound of Revenge (Screwed and Chopped)
DYEAR=2005
DGENRE=Houston Rap
TTITLE0=The Sound of Revenge
TTITLE1=In the Trunk
TTITLE2=Turn It Up ft. Lil' Flip
TTITLE3=Turn It Up (Remix) ft. ESG, Lil' O and Hawk (R.I.P.)
TTITLE4=Frontin'
TTITLE5=Bad Guy
TTITLE6=Fly As the Sky ft. Lil Wayne and Rasaq
TTITLE7=They Think I'm Crazy ft. Natalie
TTITLE8=Void In My Life
TTITLE9=Rain ft. Scarface and Billy Cook
TTITLE10=Picture Perfect ft. Bun B
TTITLE11=Southern Takeover ft. Killer Mike and Pastor Troy
TTITLE12=Ridin' ft. Krayzie Bone
TTITLE13=Rider
EXTD=
EXTT0=
EXTT1=
EXTT2=
EXTT3=
EXTT4=
EXTT5=
EXTT6=
EXTT7=
EXTT8=
EXTT9=
EXTT10=
EXTT11=
EXTT12=
EXTT13=
PLAYORDER=
